<?xml version="1.0" ?>
<svg version="1.1" xmlns="http://www.w3.org/2000/svg" width="784px" height="141px">
<!-- Generated by simple FlowDev draw-svg tool. -->
	<rect fill="rgb(255,255,255)" fill-opacity="1" stroke="none" stroke-opacity="1" stroke-width="0.0" width="784" height="141" x="0" y="0"/>
	<line stroke="rgb(0,0,0)" stroke-opacity="1.0" stroke-width="2.5" x1="14" y1="25" x2="128" y2="25"/>
	<line stroke="rgb(0,0,0)" stroke-opacity="1.0" stroke-width="2.5" x1="120" y1="17" x2="128" y2="25"/>
	<line stroke="rgb(0,0,0)" stroke-opacity="1.0" stroke-width="2.5" x1="120" y1="33" x2="128" y2="25"/>

	<line stroke="rgb(0,0,0)" stroke-opacity="1.0" stroke-width="2.5" x1="164" y1="25" x2="206" y2="25"/>
	<line stroke="rgb(0,0,0)" stroke-opacity="1.0" stroke-width="2.5" x1="198" y1="17" x2="206" y2="25"/>
	<line stroke="rgb(0,0,0)" stroke-opacity="1.0" stroke-width="2.5" x1="198" y1="33" x2="206" y2="25"/>

	<line stroke="rgb(0,0,0)" stroke-opacity="1.0" stroke-width="2.5" x1="242" y1="25" x2="284" y2="25"/>
	<line stroke="rgb(0,0,0)" stroke-opacity="1.0" stroke-width="2.5" x1="276" y1="17" x2="284" y2="25"/>
	<line stroke="rgb(0,0,0)" stroke-opacity="1.0" stroke-width="2.5" x1="276" y1="33" x2="284" y2="25"/>

	<line stroke="rgb(0,0,0)" stroke-opacity="1.0" stroke-width="2.5" x1="242" y1="90" x2="356" y2="90"/>
	<line stroke="rgb(0,0,0)" stroke-opacity="1.0" stroke-width="2.5" x1="348" y1="82" x2="356" y2="90"/>
	<line stroke="rgb(0,0,0)" stroke-opacity="1.0" stroke-width="2.5" x1="348" y1="98" x2="356" y2="90"/>

	<line stroke="rgb(0,0,0)" stroke-opacity="1.0" stroke-width="2.5" x1="392" y1="90" x2="434" y2="90"/>
	<line stroke="rgb(0,0,0)" stroke-opacity="1.0" stroke-width="2.5" x1="426" y1="82" x2="434" y2="90"/>
	<line stroke="rgb(0,0,0)" stroke-opacity="1.0" stroke-width="2.5" x1="426" y1="98" x2="434" y2="90"/>

	<rect fill="rgb(96,196,255)" fill-opacity="1.0" stroke="rgb(0,0,0)" stroke-opacity="1.0" stroke-width="2.5" width="36" height="60" x="128" y="7" rx="10" ry="10"/>
	<rect fill="rgb(96,196,255)" fill-opacity="1.0" stroke="rgb(0,0,0)" stroke-opacity="1.0" stroke-width="2.5" width="36" height="131" x="206" y="7" rx="10" ry="10"/>
	<rect fill="rgb(96,196,255)" fill-opacity="1.0" stroke="rgb(0,0,0)" stroke-opacity="1.0" stroke-width="2.5" width="36" height="60" x="356" y="72" rx="10" ry="10"/>


	<text fill="rgb(0,0,0)" fill-opacity="1.0" font-family="monospace" font-size="16" x="3" y="31" textLength="10" lengthAdjust="spacingAndGlyphs">i</text>
	<text fill="rgb(0,0,0)" fill-opacity="1.0" font-family="monospace" font-size="16" x="29" y="17" textLength="72" lengthAdjust="spacingAndGlyphs">(data)</text>
	<text fill="rgb(0,0,0)" fill-opacity="1.0" font-family="monospace" font-size="16" x="140" y="31" textLength="12" lengthAdjust="spacingAndGlyphs">a</text>
	<text fill="rgb(0,0,0)" fill-opacity="1.0" font-family="monospace" font-size="16" x="140" y="55" textLength="12" lengthAdjust="spacingAndGlyphs">A</text>
	<text fill="rgb(0,0,0)" fill-opacity="1.0" font-family="monospace" font-size="16" x="218" y="31" textLength="12" lengthAdjust="spacingAndGlyphs">b</text>
	<text fill="rgb(0,0,0)" fill-opacity="1.0" font-family="monospace" font-size="16" x="218" y="55" textLength="12" lengthAdjust="spacingAndGlyphs">B</text>
	<text fill="rgb(0,0,0)" fill-opacity="1.0" font-family="monospace" font-size="16" x="284" y="31" textLength="168" lengthAdjust="spacingAndGlyphs">... back to: a</text>
	<text fill="rgb(0,0,0)" fill-opacity="1.0" font-family="monospace" font-size="16" x="257" y="82" textLength="72" lengthAdjust="spacingAndGlyphs">(data)</text>
	<text fill="rgb(0,0,0)" fill-opacity="1.0" font-family="monospace" font-size="16" x="368" y="96" textLength="12" lengthAdjust="spacingAndGlyphs">c</text>
	<text fill="rgb(0,0,0)" fill-opacity="1.0" font-family="monospace" font-size="16" x="368" y="120" textLength="12" lengthAdjust="spacingAndGlyphs">C</text>
	<text fill="rgb(0,0,0)" fill-opacity="1.0" font-family="monospace" font-size="16" x="434" y="96" textLength="168" lengthAdjust="spacingAndGlyphs">... back to: a</text>
</svg>
